# xmcd CD database file generated by Grip 3.2.0
# 
# Track frame offsets:
#       150
#       21361
#       42749
#       60092
#       80802
#       97782
#       121172
#       143749
#       167658
#       185939
#       210896
#       235097
# 
# Disc length: 3384 seconds
# 
# Revision: 1
# Processed by: cddbd v1.5.1PL0 Copyright (c) Steve Scherf et al.
# Submitted via: Grip 3.2.0
# 
DISCID=9a0d360c
DTITLE=Oscar D'Leon - El Unico
DYEAR=2002
DGENRE=Salsa
TTITLE0=Detalles
TTITLE1=El Manicero
TTITLE2=El que siembra su maiz
TTITLE3=Sientate ahi
TTITLE4=A el
TTITLE5=El baile del suavecito
TTITLE6=Mi bajo y yo
TTITLE7=Calculadora
TTITLE8=Monta mi caballo
TTITLE9=Mata Siguaraya
TTITLE10=Juanita Morel
TTITLE11=Juancito Trucupey
EXTD=
EXTT0=
EXTT1=
EXTT2=
EXTT3=
EXTT4=
EXTT5=
EXTT6=
EXTT7=
EXTT8=
EXTT9=
EXTT10=
EXTT11=
PLAYORDER=
